<svg xmlns="http://www.w3.org/2000/svg" width="41.006" height="49.995" viewBox="0 0 123.031 150">
  <metadata><?xpacket begin="﻿" id="W5M0MpCehiHzreSzNTczkc9d"?>
<x:xmpmeta xmlns:x="adobe:ns:meta/" x:xmptk="Adobe XMP Core 5.6-c142 79.160924, 2017/07/13-01:06:39        ">
   <rdf:RDF xmlns:rdf="http://www.w3.org/1999/02/22-rdf-syntax-ns#">
      <rdf:Description rdf:about=""/>
   </rdf:RDF>
</x:xmpmeta>
                                                                                                    
                                                                                                    
                                                                                                    
                                                                                                    
                                                                                                    
                                                                                                    
                                                                                                    
                                                                                                    
                                                                                                    
                                                                                                    
                                                                                                    
                                                                                                    
                                                                                                    
                                                                                                    
                                                                                                    
                                                                                                    
                                                                                                    
                                                                                                    
                                                                                                    
                                                                                                    
                           
<?xpacket end="w"?></metadata>
<defs>
    <style>
      .cls-1 {
        fill: #c03a3a;
        fill-rule: evenodd;
      }
    </style>
  </defs>
  <path id="Forma_1" data-name="Forma 1" class="cls-1" d="M845.742,1942.5a10,10,0,1,0,9.84,10A9.928,9.928,0,0,0,845.742,1942.5Zm0,15a5,5,0,1,1,4.92-5A4.971,4.971,0,0,1,845.742,1957.5Zm31.981,17.5a10,10,0,1,0,9.839,10A9.928,9.928,0,0,0,877.723,1975Zm0,15a5,5,0,1,1,4.92-5A4.97,4.97,0,0,1,877.723,1990Zm-36.182-6.77,34.442-35,3.478,3.53-34.441,35Zm6.863,33.28-12.673,30.05-5.008-10.18a2.462,2.462,0,0,0-2.877-1.29l-12.4,3.6,12.894-32.77-4.568-1.85-14.762,37.49a2.543,2.543,0,0,0,.46,2.61,2.478,2.478,0,0,0,2.5.73l15.258-4.43,6.467,13.14a2.454,2.454,0,0,0,2.2,1.38h0.074a2.447,2.447,0,0,0,2.189-1.51l14.762-35Zm63.581,25.05-14.761-37.49-4.569,1.85,12.9,32.77-12.4-3.6a2.447,2.447,0,0,0-2.875,1.28l-5.091,10.35-12.616-27.77-4.467,2.09,14.761,32.5a2.437,2.437,0,0,0,2.2,1.45H885.1a2.433,2.433,0,0,0,2.194-1.38l6.468-13.14,15.26,4.43a2.452,2.452,0,0,0,2.5-.73A2.537,2.537,0,0,0,911.985,2041.56Zm9.383-75.74-10.669-12,3.329-15.8a2.507,2.507,0,0,0-1.651-2.9l-15.136-4.96-4.875-15.4a2.463,2.463,0,0,0-2.861-1.68l-15.546,3.41-11.806-10.85a2.433,2.433,0,0,0-3.3,0l-11.808,10.85-15.546-3.41a2.453,2.453,0,0,0-2.861,1.68l-4.879,15.4-15.157,4.96a2.507,2.507,0,0,0-1.65,2.91l3.351,15.79-10.67,12a2.541,2.541,0,0,0,0,3.36l10.67,11.99-3.351,15.8a2.51,2.51,0,0,0,1.65,2.91l15.159,4.95,4.879,15.38a2.448,2.448,0,0,0,2.856,1.68l15.547-3.38,11.81,10.84a2.447,2.447,0,0,0,3.3,0l11.808-10.84,15.548,3.38a2.448,2.448,0,0,0,2.857-1.68l4.875-15.38,15.136-4.95a2.512,2.512,0,0,0,1.651-2.9l-3.329-15.8,10.669-12A2.539,2.539,0,0,0,921.368,1965.82Zm-15.161,12.95a2.54,2.54,0,0,0-.578,2.2l3.126,14.84-14.22,4.66a2.494,2.494,0,0,0-1.588,1.61l-4.582,14.45-14.606-3.17a2.359,2.359,0,0,0-2.163.58l-11.1,10.19-11.094-10.19a2.426,2.426,0,0,0-1.648-.64,2.913,2.913,0,0,0-.512.05l-14.6,3.18-4.582-14.45a2.488,2.488,0,0,0-1.59-1.62l-14.239-4.65,3.146-14.84a2.533,2.533,0,0,0-.577-2.2l-10.025-11.27,10.022-11.28a2.518,2.518,0,0,0,.579-2.2l-3.147-14.84,14.239-4.65a2.488,2.488,0,0,0,1.59-1.62l4.58-14.47,14.6,3.2a2.428,2.428,0,0,0,2.168-.59l11.094-10.18,11.1,10.18a2.438,2.438,0,0,0,2.171.59l14.6-3.2,4.581,14.47a2.449,2.449,0,0,0,1.589,1.61l14.219,4.66-3.127,14.84a2.515,2.515,0,0,0,.579,2.2l10.022,11.28Z" transform="translate(-799 -1905)"/>
</svg>
