<svg xmlns="http://www.w3.org/2000/svg" width="49.995" height="50.328" viewBox="0 0 150 151">
  <defs>
    <style>
      .cls-1 {
        fill: #c03a3a;
        fill-rule: evenodd;
      }
    </style>
  </defs>
  <path class="cls-1" d="M408.223,1980.5a18.814,18.814,0,0,0-4.356-24.58,18.865,18.865,0,0,0-12.541-21.62,18.8,18.8,0,0,0-6.563-11.64,19.04,19.04,0,0,0-12.651-4.41,19.005,19.005,0,0,0-16.651-9.84,19.215,19.215,0,0,0-6.919,1.3,19.058,19.058,0,0,0-25.087,0,19.2,19.2,0,0,0-6.918-1.3,19.005,19.005,0,0,0-16.65,9.84,19.048,19.048,0,0,0-12.652,4.41,18.79,18.79,0,0,0-6.561,11.64,18.867,18.867,0,0,0-12.543,21.62,1595.461,1595.461,0,0,1-6.842,37.69,18.8,18.8,0,0,0,6.842,11.48,18.883,18.883,0,0,0,12.541,21.62,18.81,18.81,0,0,0,6.563,11.63,19.06,19.06,0,0,0,12.652,4.41,19.02,19.02,0,0,0,23.569,8.54A18.972,18.972,0,0,0,336,2056h0a18.965,18.965,0,0,0,12.542-4.71,19.014,19.014,0,0,0,23.57-8.54,19.058,19.058,0,0,0,12.652-4.41,18.8,18.8,0,0,0,6.562-11.63,18.878,18.878,0,0,0,12.541-21.62A18.826,18.826,0,0,0,408.223,1980.5Zm-4.985,11.8a11.283,11.283,0,0,1-5.628,7.9,3.776,3.776,0,0,0-1.688,4.62,11.323,11.323,0,0,1-8.8,15.17,3.773,3.773,0,0,0-3.172,3.76,11.262,11.262,0,0,1-4.065,8.8,11.479,11.479,0,0,1-9.416,2.46,3.8,3.8,0,0,0-4.275,2.46,11.314,11.314,0,0,1-6.844,6.88,11.492,11.492,0,0,1-9.693-.89,3.8,3.8,0,0,0-4.862.85,11.418,11.418,0,0,1-17.6,0,3.8,3.8,0,0,0-2.933-1.38,3.744,3.744,0,0,0-1.928.53,11.49,11.49,0,0,1-9.692.89,11.312,11.312,0,0,1-6.844-6.88,3.8,3.8,0,0,0-4.275-2.46,11.479,11.479,0,0,1-9.416-2.46,11.256,11.256,0,0,1-4.065-8.8,3.773,3.773,0,0,0-3.173-3.76,11.375,11.375,0,0,1-8-5.51,11.259,11.259,0,0,1-.8-9.66,3.775,3.775,0,0,0-1.688-4.62,11.287,11.287,0,0,1-3.056-17.24,3.769,3.769,0,0,0,0-4.92,11.287,11.287,0,0,1,3.056-17.24,3.774,3.774,0,0,0,1.688-4.62,11.234,11.234,0,0,1,.8-9.65,11.358,11.358,0,0,1,8-5.52,3.774,3.774,0,0,0,3.173-3.76,11.257,11.257,0,0,1,4.063-8.8,11.477,11.477,0,0,1,9.415-2.46,3.794,3.794,0,0,0,4.276-2.46,11.313,11.313,0,0,1,6.845-6.88,11.452,11.452,0,0,1,9.69.9,3.816,3.816,0,0,0,4.863-.86,11.419,11.419,0,0,1,17.6,0,3.813,3.813,0,0,0,4.861.86,11.457,11.457,0,0,1,9.693-.9,11.3,11.3,0,0,1,6.844,6.89,3.791,3.791,0,0,0,4.276,2.45,11.479,11.479,0,0,1,9.416,2.46,11.262,11.262,0,0,1,4.065,8.8,3.773,3.773,0,0,0,3.172,3.76,11.355,11.355,0,0,1,8,5.52,11.234,11.234,0,0,1,.8,9.65,3.773,3.773,0,0,0,1.689,4.62,11.3,11.3,0,0,1,3.055,17.25,3.759,3.759,0,0,0,0,4.91A11.243,11.243,0,0,1,403.238,1992.3Zm-51.9-58.44a3.779,3.779,0,1,0,2.359-7.18,56.937,56.937,0,0,0-74.51,50.74,3.793,3.793,0,0,0,3.582,3.98h0.21a3.789,3.789,0,0,0,3.785-3.57A49.34,49.34,0,0,1,351.335,1933.86Zm37.9,45.75a3.778,3.778,0,0,0-3.994,3.56,49.341,49.341,0,0,1-64.574,43.97,3.779,3.779,0,1,0-2.36,7.18,57.31,57.31,0,0,0,29.409,1.59,56.778,56.778,0,0,0,45.1-52.33A3.777,3.777,0,0,0,389.232,1979.61ZM287.6,1989.9a3.792,3.792,0,0,0-7.445,1.45c0.2,1.05.445,2.11,0.715,3.16a3.792,3.792,0,0,0,7.352-1.86C287.987,1991.73,287.779,1990.81,287.6,1989.9Zm96.8-18.8a3.79,3.79,0,0,0,3.719,3.05,3.675,3.675,0,0,0,.733-0.07,3.776,3.776,0,0,0,3-4.43c-0.207-1.05-.449-2.11-0.718-3.16a3.792,3.792,0,0,0-7.349,1.87C384.01,1969.27,384.218,1970.19,384.4,1971.1Zm-68.507,33.7a3.781,3.781,0,0,0,3.7,4.61,3.861,3.861,0,0,0,1.943-.53L336,2000.29l14.467,8.59a3.81,3.81,0,0,0,4.172-.19,3.766,3.766,0,0,0,1.469-3.89l-3.735-16.35,12.677-11.04a3.77,3.77,0,0,0-2.155-6.6l-16.777-1.52-6.632-15.41a3.8,3.8,0,0,0-6.973,0l-6.633,15.41-16.775,1.52a3.77,3.77,0,0,0-2.155,6.6l12.676,11.04Zm2.718-27.27,10.211-.92a3.8,3.8,0,0,0,3.144-2.28l4.037-9.37,4.037,9.37a3.8,3.8,0,0,0,3.143,2.28l10.21,0.92-7.714,6.72a3.762,3.762,0,0,0-1.2,3.68l2.273,9.95-8.8-5.23a3.828,3.828,0,0,0-3.887,0l-8.805,5.23,2.273-9.95a3.766,3.766,0,0,0-1.2-3.68Z" transform="translate(-261 -1905)"/>
</svg>
