<svg xmlns="http://www.w3.org/2000/svg" width="43.884" height="49.608" viewBox="0 0 115 130">
  <metadata><?xpacket begin="﻿" id="W5M0MpCehiHzreSzNTczkc9d"?>
<x:xmpmeta xmlns:x="adobe:ns:meta/" x:xmptk="Adobe XMP Core 5.6-c142 79.160924, 2017/07/13-01:06:39        ">
   <rdf:RDF xmlns:rdf="http://www.w3.org/1999/02/22-rdf-syntax-ns#">
      <rdf:Description rdf:about=""/>
   </rdf:RDF>
</x:xmpmeta>
                                                                                                    
                                                                                                    
                                                                                                    
                                                                                                    
                                                                                                    
                                                                                                    
                                                                                                    
                                                                                                    
                                                                                                    
                                                                                                    
                                                                                                    
                                                                                                    
                                                                                                    
                                                                                                    
                                                                                                    
                                                                                                    
                                                                                                    
                                                                                                    
                                                                                                    
                                                                                                    
                           
<?xpacket end="w"?></metadata>
<defs>
    <style>
      .cls-1 {
        fill: #ffab97;
        stroke: #c03a3a;
        stroke-linejoin: round;
        stroke-width: 5px;
        fill-rule: evenodd;
      }
    </style>
  </defs>
  <path class="cls-1" d="M1006.08,1683.93c-3.86-10.47-11.073-17.75-20.311-20.51h0c-8.906-2.66-18.586-.74-27.231,5.25a29.2,29.2,0,0,0-3.467-9.01,19.826,19.826,0,0,0,17.1-24.83,3.059,3.059,0,0,0-2.163-2.16,19.848,19.848,0,0,0-24.875,16.83,29.457,29.457,0,0,0-15.53-4.41,3.05,3.05,0,1,0,0,6.1,23.439,23.439,0,0,1,22.34,16.35c-8.249-5.19-17.319-6.75-25.713-4.24-9.237,2.75-16.452,10.04-20.314,20.51-3.751,10.16-3.888,22.18-.387,33.83s10.238,21.62,18.973,28.05c9,6.63,19.041,8.76,28.279,6.01a28.6,28.6,0,0,0,3.078-1.13,27.689,27.689,0,0,0,3.36,1.25,28,28,0,0,0,8.061,1.18c6.822,0,13.786-2.44,20.218-7.18,8.735-6.44,15.473-16.4,18.973-28.05S1009.83,1694.1,1006.08,1683.93Zm-54.869-30.36a13.746,13.746,0,0,1,15.409-15.37A13.747,13.747,0,0,1,951.211,1653.57Z" transform="translate(-898.5 -1627.5)"/>
</svg>
