<svg xmlns="http://www.w3.org/2000/svg" width="49.67" height="22.925" viewBox="0 0 156 72">
  <metadata><?xpacket begin="﻿" id="W5M0MpCehiHzreSzNTczkc9d"?>
<x:xmpmeta xmlns:x="adobe:ns:meta/" x:xmptk="Adobe XMP Core 5.6-c142 79.160924, 2017/07/13-01:06:39        ">
   <rdf:RDF xmlns:rdf="http://www.w3.org/1999/02/22-rdf-syntax-ns#">
      <rdf:Description rdf:about=""/>
   </rdf:RDF>
</x:xmpmeta>
                                                                                                    
                                                                                                    
                                                                                                    
                                                                                                    
                                                                                                    
                                                                                                    
                                                                                                    
                                                                                                    
                                                                                                    
                                                                                                    
                                                                                                    
                                                                                                    
                                                                                                    
                                                                                                    
                                                                                                    
                                                                                                    
                                                                                                    
                                                                                                    
                                                                                                    
                                                                                                    
                           
<?xpacket end="w"?></metadata>
<defs>
    <style>
      .cls-1 {
        fill: #ffab97;
        stroke: #c03a3a;
        stroke-linejoin: round;
        stroke-width: 5px;
        fill-rule: evenodd;
      }
    </style>
  </defs>
  <path class="cls-1" d="M919.1,1295.37v10.12h52.65v-10.12H919.1Zm0-17.16c0-5.09-4.8-9.21-10.715-9.21s-10.715,4.12-10.715,9.21v44.57c0,5.08,4.8,9.21,10.715,9.21s10.715-4.13,10.715-9.21v-44.57Zm63.364-9.21c-5.917,0-10.714,4.12-10.714,9.21v44.57c0,5.08,4.8,9.21,10.714,9.21s10.716-4.13,10.716-9.21v-44.57C993.182,1273.12,988.385,1269,982.466,1269Zm-95.509,6.58c-4.681,0-8.474,3.27-8.474,7.29v11.14H874.9a2.725,2.725,0,0,0-2.9,2.5v6.15a2.725,2.725,0,0,0,2.9,2.5h3.582v12.96c0,4.02,3.793,7.28,8.474,7.28s8.473-3.26,8.473-7.28v-35.25C895.43,1278.85,891.637,1275.58,886.957,1275.58Zm129.133,18.43h-3.58v-11.14c0-4.02-3.79-7.29-8.47-7.29s-8.476,3.27-8.476,7.29v35.25c0,4.02,3.794,7.28,8.476,7.28s8.47-3.26,8.47-7.28v-12.96h3.58a2.727,2.727,0,0,0,2.91-2.5v-6.15A2.727,2.727,0,0,0,1016.09,1294.01Z" transform="translate(-867.5 -1264.5)"/>
</svg>
