<svg xmlns="http://www.w3.org/2000/svg" width="20.917" height="19.379" viewBox="0 0 68 63">
  <defs>
    <style>
      .cls-1 {
        fill: #d6a294;
        stroke: #d6a294;
        stroke-linejoin: round;
        stroke-width: 1px;
        fill-rule: evenodd;
      }
    </style>
  </defs>
  <path id="Forma_1" data-name="Forma 1" class="cls-1" d="M492.816,379.094A1.909,1.909,0,0,0,491.089,378H431.907a1.908,1.908,0,0,0-1.473,3.121l22.751,27.559v25.412A1.906,1.906,0,0,0,455.093,436a1.924,1.924,0,0,0,.848-0.2l12.783-6.329a1.9,1.9,0,0,0,1.061-1.7l0.025-19.086,22.751-27.56A1.906,1.906,0,0,0,492.816,379.094ZM466.429,406.78a1.913,1.913,0,0,0-.436,1.211l-0.025,18.588L457,431.017V407.994a1.914,1.914,0,0,0-.435-1.214l-20.612-24.967h51.083Z" transform="translate(-427.5 -375.5)"/>
</svg>
