<svg xmlns="http://www.w3.org/2000/svg" width="50.134" height="44.992" viewBox="0 0 195 175">
  <defs>
    <style>
      .cls-1 {
        fill: #d6a294;
        fill-rule: evenodd;
      }
    </style>
  </defs>
  <path id="Forma_1_copy_15" data-name="Forma 1 copy 15" class="cls-1" d="M1393.97,1365H1267v-11.92a13.5,13.5,0,0,0,8.44,2.97h109.77Zm-72.02-175a12.427,12.427,0,0,0-6.95,22.67,28.817,28.817,0,0,1,6.68-10.53,28.447,28.447,0,0,1,10.46-6.72A12.3,12.3,0,0,0,1321.95,1190Zm-3.53,32.53a23.647,23.647,0,1,0,1.34-7.91A24.189,24.189,0,0,0,1318.42,1222.53Zm-12.77,32.66c-5.5,12.29-17.51,43.7-20.81,51.61h40.96a62.934,62.934,0,0,1,3.04-6.47c3.85-7.25,15.9-10.84,13.03-20.95-0.02-.08-0.06-0.17-0.08-0.27l10.79,10.3a8.5,8.5,0,0,0,2.8,1.78l29.5,11.34a8.68,8.68,0,0,0,3.03.56,8.552,8.552,0,0,0,3.01-16.53l-26.07-10.03a10.137,10.137,0,0,1-3.28-2.07l-22.98-21.95a9.254,9.254,0,0,0-3.54-1.97c-0.31-.1-0.64-0.21-0.97-0.29-0.36-.1-0.73-0.21-1.1-0.29-5.73-1.54-12.11-2.85-18-2.33a12.042,12.042,0,0,0-5.72,1.81C1307.36,1250.81,1306.58,1253.14,1305.65,1255.19Zm-30.21,95.67h111.91l10.73,10.94a10.621,10.621,0,0,0,7.57,3.2h45.71a10.705,10.705,0,1,0-.17-21.41H1410.1l-27.92-28.52c-2.17-2.22-3.45-3.14-7.33-3.14-6.68,0-99.41.06-99.41,0.06a8.461,8.461,0,0,0-8.44,8.5v21.88A8.459,8.459,0,0,0,1275.44,1350.86Zm171.21-39.16a24.4,24.4,0,1,0-24.4,24.57A24.493,24.493,0,0,0,1446.65,1311.7Z" transform="translate(-1267 -1190)"/>
</svg>
