<svg xmlns="http://www.w3.org/2000/svg" width="44.996" height="44.996" viewBox="0 0 155 155">
  <defs>
    <style>
      .cls-1 {
        fill: #d6a294;
        fill-rule: evenodd;
      }
    </style>
  </defs>
  <path id="Forma_1" data-name="Forma 1" class="cls-1" d="M1654.06,679h9.69v29.063h-9.69V679Zm77.5,0h9.69v29.063h-9.69V679Zm-42.62,135.625h-54.25v-77.5h125.93v5.813a34.61,34.61,0,0,1,9.69,6.779v-61.03h-19.37V717.75h-29.07V688.687h-48.43V717.75h-29.07V688.687H1625V824.312h70.72A34.47,34.47,0,0,1,1688.94,814.624Zm71.68-19.375h-29.06V766.187h9.69v19.375h19.37v9.687ZM1736.41,756.5a33.906,33.906,0,1,1-33.91,33.906A34.313,34.313,0,0,1,1736.41,756.5Zm0-9.688A43.594,43.594,0,1,0,1780,790.406a43.417,43.417,0,0,0-43.59-43.594h0Z" transform="translate(-1625 -679)"/>
</svg>
