<svg xmlns="http://www.w3.org/2000/svg" width="46.833" height="44.997" viewBox="0 0 153 147">
  <defs>
    <style>
      .cls-1 {
        fill: #d6a294;
        fill-rule: evenodd;
      }
    </style>
  </defs>
  <path class="cls-1" d="M1100.39,1237.49l-0.37-.37a9.084,9.084,0,0,0-12.79.01l-13.77,13.85a1.925,1.925,0,0,1-2.65.06l-19.3-17.74a10.109,10.109,0,0,0-6.87-2.67h-28.72a2.65,2.65,0,0,0-1.82.71l-24.344,23.01a9.245,9.245,0,0,0-.543,12.76,9.031,9.031,0,0,0,6.639,2.89H995.9a9.088,9.088,0,0,0,6.6-2.89l17.19-18.11h6.15l-40.118,44.63H960.976a10.76,10.76,0,0,0-10.983,9.93,10.37,10.37,0,0,0,2.881,7.79,10.624,10.624,0,0,0,7.654,3.28h36.925a2.622,2.622,0,0,0,1.926-.84l18.921-20.1,15.91,16.56-4.81,30.55a10.612,10.612,0,0,0,5.8,12.25,10.793,10.793,0,0,0,4.4.95,10.538,10.538,0,0,0,10.27-8.21l8.2-43.81a2.607,2.607,0,0,0-.73-2.34l-21.9-21.76,17.4-17.29,12.13,12.06a9.183,9.183,0,0,0,12.67,0l22.75-22.64A8.812,8.812,0,0,0,1100.39,1237.49Zm-29.09,1.01a15.75,15.75,0,1,0-15.82-15.75A15.8,15.8,0,0,0,1071.3,1238.5Z" transform="translate(-950 -1207)"/>
</svg>
