<svg xmlns="http://www.w3.org/2000/svg" width="64.54" height="44.994" viewBox="0 0 175 122">
  <defs>
    <style>
      .cls-1 {
        fill: #d6a294;
        fill-rule: evenodd;
      }
    </style>
  </defs>
  <path id="Forma_1_copy_16" data-name="Forma 1 copy 16" class="cls-1" d="M1640.06,1274.52a3.361,3.361,0,0,0,4.76-.34c0.53-.61,12.72-14.98,3.48-26.65-5.13-6.48-1.35-10.24-.52-10.95a3.386,3.386,0,0,0-4.24-5.28c-3.54,2.84-8.22,10.75-.54,20.45,5.76,7.26-3.2,17.89-3.29,17.99A3.389,3.389,0,0,0,1640.06,1274.52Zm29.58-13.57a3.346,3.346,0,0,0,2.21.83,3.386,3.386,0,0,0,2.56-1.17c0.53-.6,12.72-14.97,3.48-26.65-5.13-6.48-1.35-10.24-.52-10.94a3.386,3.386,0,0,0-4.24-5.28c-3.54,2.83-8.22,10.75-.54,20.44,5.76,7.27-3.2,17.89-3.29,17.99A3.4,3.4,0,0,0,1669.64,1260.95Zm26.2,0a3.346,3.346,0,0,0,2.21.83,3.386,3.386,0,0,0,2.56-1.17c0.52-.6,12.72-14.97,3.47-26.65-5.13-6.48-1.34-10.24-.52-10.94a3.386,3.386,0,0,0-4.24-5.28c-3.54,2.83-8.22,10.75-.54,20.44,5.76,7.27-3.2,17.89-3.29,17.99A3.407,3.407,0,0,0,1695.84,1260.95Zm68.77-26.65a18.655,18.655,0,1,1-18.59,18.66A18.629,18.629,0,0,1,1764.61,1234.3Zm-130.33,104.71H1768.7a20.334,20.334,0,0,0,20.29-20.34v-19.31c0-3.88-3.82-6.94-9.83-9.36a17.308,17.308,0,0,1-.49,3.61c-0.25,1.02-.52,2.02-0.81,2.99,2.35,0.97,3.8,1.91,4.28,2.73a2.825,2.825,0,0,1-.28.38,4.379,4.379,0,0,1-.37.4,7.313,7.313,0,0,1-.65.46,6.659,6.659,0,0,1-.65.43c-0.28.16-.64,0.33-0.98,0.49-0.3.16-.58,0.3-0.92,0.45a0.37,0.37,0,0,0-.11.05,25.538,25.538,0,0,0-2.49.95c-0.81.35-1.69,0.67-2.55,1a68.89,68.89,0,0,0,4.12-11.9c2.23-9.1-5.21-17.23-13.81-17.74a25.082,25.082,0,0,0-5.81.45c-3.39-2.35-10.15-5.74-22.75-8.07,2.43-5.33,3.93-12.65-1.22-19.15-5.13-6.48-1.34-10.24-.51-10.94a3.406,3.406,0,0,0,.51-4.74,3.366,3.366,0,0,0-4.75-.54c-3.55,2.83-8.22,10.74-.54,20.44,3.5,4.41,1.56,10.06-.52,13.84a200.95,200.95,0,0,0-24.46-1.52h-0.05a6.78,6.78,0,0,0-.03,13.56c18.85,0.13,30.62,2.3,37.71,4.45a29.559,29.559,0,0,0-4.4,3.93c-1.89,2.15-3.97,4.5-6.09,6.91-15.26,2.4-24.64-.67-24.89-0.76a6.779,6.779,0,0,0-4.61,12.75c0.48,0.18,6.62,2.32,16.89,2.5-1.23,1.46-2.15,2.67-2.92,3.76-2.49-.01-4.62-0.04-6.14-0.08-0.33-.04-0.66-0.07-0.97-0.12-2.12.03-4.21,0.07-6.41,0.07q-4.71,0-9.16-.09c-1.12-.02-2.16-0.06-3.25-0.09-1.81-.05-3.64-0.09-5.37-0.15-1.58-.06-3.06-0.15-4.58-0.22-1.16-.06-2.37-0.11-3.5-0.17-1.97-.12-3.83-0.25-5.69-0.39-0.6-.04-1.24-0.08-1.83-0.12-29.11-2.29-45.5-7.25-47.3-10.45,2.4-4.28,30.79-11.68,80.68-11.68,9.96,0,19.02.31,27.24,0.81l3.46-3.92c-6.75-1.42-16.69-2.69-30.77-2.79a10.116,10.116,0,0,1-3.97-.84c-17.33.23-83.46,2.21-83.46,18.42v19.31A20.334,20.334,0,0,0,1634.28,1339.01Z" transform="translate(-1614 -1217)"/>
</svg>
