<svg xmlns="http://www.w3.org/2000/svg" width="33.815" height="44.995" viewBox="0 0 124 165">
  <defs>
    <style>
      .cls-1 {
        fill: #d6a294;
        fill-rule: evenodd;
      }
    </style>
  </defs>
  <path class="cls-1" d="M1026.99,717.748a12.962,12.962,0,1,1-12.9,12.961A12.927,12.927,0,0,1,1026.99,717.748Zm-17.33,95.874V819.6h0a7.815,7.815,0,1,0,15.63,0v-5.982h-15.63Zm19.01,0V819.6h0a7.815,7.815,0,1,0,15.63,0v-5.982h-15.63ZM1026.98,669a13.558,13.558,0,1,1-13.5,13.557A13.533,13.533,0,0,1,1026.98,669Zm7.62,132.556h-15.19l-15.85,7h46.89Zm50.49-63.3h-3.3V727.167a2.076,2.076,0,0,0-2.07-2.077h-5.65a2.076,2.076,0,0,0-2.07,2.077v11.092h-7.22a5.755,5.755,0,0,0-2.21-5.111h4.39l0.08-6.952-5.37-4.448-13.53-17.779a8.261,8.261,0,0,0-6.59-3.266l-29.15.043a8.278,8.278,0,0,0-6.57,3.264l-13.676,17.969-5.122,5.145c0,0.015,0,.029,0,0.044v5.981h4.408a5.772,5.772,0,0,0-2.21,5.11h-7.239V727.168a2.071,2.071,0,0,0-2.067-2.077h-5.649a2.072,2.072,0,0,0-2.067,2.077v11.091h-3.3a3.931,3.931,0,0,0,0,7.861h3.3v11.092a2.072,2.072,0,0,0,2.067,2.077h5.649a2.073,2.073,0,0,0,2.068-2.077V746.12h8.063c0.247,2.353,2,18.984,2.258,21.444a5.748,5.748,0,0,0,10.045,3.19c3.83-4.4,3.5-4.027,8.07-9.283v22.084c-2.17.887-18.469,7.538-20.894,8.527a7.5,7.5,0,0,0-4.574,5.822l-4.17,27.453a7.473,7.473,0,1,0,14.773,2.263l3.529-23.237c3.616-1.475,15.576-6.357,19.336-7.888h17.16c8.19,3.343,18.64,7.608,19.33,7.888l3.53,23.237a7.471,7.471,0,1,0,14.77-2.263l-4.17-27.453a7.521,7.521,0,0,0-4.57-5.822c-3.36-1.367-18.82-7.678-21.07-8.594h0V761.274c5.49,6.3,3.24,3.726,8.25,9.48a5.744,5.744,0,0,0,10.04-3.19c0.26-2.46,2.01-19.09,2.26-21.443h8.05v11.092a2.068,2.068,0,0,0,2.06,2.077h5.65a2.076,2.076,0,0,0,2.07-2.077V746.121h3.3A3.931,3.931,0,0,0,1085.09,738.259Zm-82.73,14.947c-0.31-2.956-.26-2.414-0.75-7.086h6.91C1006.02,749,1004.9,750.289,1002.36,753.206Zm49.3,0c-2.56-2.942-3.63-4.173-6.17-7.086h6.91C1051.82,751.622,1051.97,750.268,1051.66,753.206Zm1.57-14.947h-9.95a17.9,17.9,0,0,1-32.58,0h-9.91a6.4,6.4,0,0,0-2.576-5.291l2.126-2.138c0.19-.189.96-0.989,1.12-1.2l8.2-10.777v7.184a17.924,17.924,0,0,1,34.5-.569v-6.852l8.38,11.014a5.467,5.467,0,0,0,.95.992l2.6,2.16C1053.43,734.4,1053.37,736.929,1053.23,738.259Z" transform="translate(-965 -669)"/>
</svg>
