<svg xmlns="http://www.w3.org/2000/svg" width="21.855" height="19.852" viewBox="0 0 37.156 33.75">
  <metadata><?xpacket begin="﻿" id="W5M0MpCehiHzreSzNTczkc9d"?>
<x:xmpmeta xmlns:x="adobe:ns:meta/" x:xmptk="Adobe XMP Core 5.6-c142 79.160924, 2017/07/13-01:06:39        ">
   <rdf:RDF xmlns:rdf="http://www.w3.org/1999/02/22-rdf-syntax-ns#">
      <rdf:Description rdf:about=""/>
   </rdf:RDF>
</x:xmpmeta>
                                                                                                    
                                                                                                    
                                                                                                    
                                                                                                    
                                                                                                    
                                                                                                    
                                                                                                    
                                                                                                    
                                                                                                    
                                                                                                    
                                                                                                    
                                                                                                    
                                                                                                    
                                                                                                    
                                                                                                    
                                                                                                    
                                                                                                    
                                                                                                    
                                                                                                    
                                                                                                    
                           
<?xpacket end="w"?></metadata>
<defs>
    <style>
      .cls-1 {
        fill: #bd3e67;
        fill-rule: evenodd;
      }
    </style>
  </defs>
  <path id="Forma_1" data-name="Forma 1" class="cls-1" d="M352.99,1215.25c-0.059-1.07-1.321-1.91-3.842-2.54a1.448,1.448,0,0,0,.133-0.59v-4.37H349.27c-0.221-3.64-15.014-3.75-16.713-3.75s-16.491.11-16.713,3.75h-0.011v0.08h0v4.29c0,1.19,1.522,2.12,3.782,2.81a1.378,1.378,0,0,0-.056.32h-0.01v0.08h0v4.29c-2.434.63-3.649,1.45-3.709,2.5h-0.007v0.08h0v4.3c0,0.82.741,1.53,1.95,2.11a1.469,1.469,0,0,0-.082.39h-0.01v0.08h0v4.29c0.006,2.08,4.644,3.37,9.8,3.98,0.038,0,.072.02,0.113,0.02,0.012,0,.022-0.01.034-0.01,0.993,0.12,2,.2,3,0.27,0.022,0,.04.01,0.061,0.01s0.021-.01.034-0.01c1.268,0.08,2.517.12,3.684,0.12s2.415-.04,3.684-0.12c0.011,0,.021.01,0.031,0.01s0.041-.01.063-0.01c1-.07,2.007-0.15,3-0.27,0.011,0,.02.01,0.032,0.01a0.439,0.439,0,0,0,.113-0.03c5.155-.6,9.792-1.89,9.8-3.97V1229H351.13c-0.045-.77-0.691-1.41-1.969-1.94a1.427,1.427,0,0,0,.12-0.56v-4.09c2.224-.69,3.714-1.61,3.718-2.79v-4.37H352.99Zm-5.015,11.45-0.21.19a5.773,5.773,0,0,1-1.581.86v-2.98a9.547,9.547,0,0,0,1.859-.86v2.59A0.392,0.392,0,0,1,347.975,1226.7Zm-13.853,2.9a2.473,2.473,0,0,1-.272.01c-0.221,0-.449.01-0.673,0.01v-3.12c0.17-.01.34-0.01,0.51-0.01h0.1c0.622-.02,1.246-0.04,1.868-0.07v3.13c-0.134,0-.267.01-0.4,0.02Zm-2.705.01c-0.285,0-.567-0.01-0.848-0.02h-0.1c-0.338-.01-0.672-0.03-1-0.04v-3.12q0.931,0.045,1.868.06h0.1c0.17,0,.341,0,0.512.01v3.12h-0.362C331.523,1229.62,331.471,1229.61,331.417,1229.61Zm-11.188-1.42c-0.02-.01-0.039-0.01-0.059-0.02v-3.02c0.577,0.16,1.2.3,1.857,0.43v3.05c-0.569-.12-1.093-0.25-1.57-0.38Zm13.057,5.17c0.17,0.01.34,0.01,0.51,0.01v3.12c-0.857,0-1.682-.03-2.477-0.07v-3.12c0.62,0.03,1.244.05,1.868,0.06h0.1Zm2.358,0c0.624-.01,1.248-0.03,1.868-0.06v3.12c-0.8.04-1.621,0.07-2.477,0.07v-3.12c0.171,0,.341,0,0.51-0.01h0.1Zm4.965-.28v3.1c-0.595.07-1.215,0.12-1.858,0.17v-3.12C339.378,1233.19,340,1233.14,340.609,1233.08Zm1.239-.14c0.639-.07,1.258-0.16,1.858-0.26v3.07c-0.583.1-1.2,0.2-1.858,0.28v-3.09Zm3.1-.48c0.658-.13,1.28-0.28,1.859-0.43v3.01c-0.553.16-1.173,0.32-1.859,0.47v-3.05Zm-21.059,0v3.05c-0.685-.15-1.307-0.31-1.859-0.47v-3.01C322.606,1232.18,323.228,1232.33,323.886,1232.46Zm1.239,0.22c0.6,0.1,1.219.19,1.857,0.26v3.1c-0.654-.09-1.274-0.19-1.857-0.29v-3.07Zm3.1,0.4c0.609,0.06,1.23.11,1.857,0.15v3.12c-0.642-.05-1.262-0.1-1.857-0.17v-3.1Zm-1.537-3.74a1.213,1.213,0,0,1-.189-0.02c-0.045,0-.088-0.01-0.133-0.01v-3.11c0.61,0.06,1.23.11,1.859,0.16v3.11C327.7,1229.43,327.187,1229.39,326.685,1229.34Zm-1.56-3.27v3.09c-0.655-.09-1.276-0.18-1.859-0.29v-3.07C323.865,1225.9,324.486,1225.99,325.125,1226.07Zm12.18,3.37-0.413.03v-3.11c0.629-.05,1.249-0.1,1.859-0.16v3.11c-0.382.04-.774,0.08-1.176,0.11C337.484,1229.43,337.4,1229.43,337.305,1229.44Zm2.685-.28v-3.09c0.638-.08,1.259-0.17,1.858-0.27v3.07C341.265,1228.98,340.645,1229.07,339.99,1229.16Zm3.1-3.58c0.658-.13,1.28-0.27,1.858-0.43v3.02c-0.552.16-1.173,0.32-1.858,0.46v-3.05Zm-8.471-2.85c-0.466-.02-0.92-0.03-1.367-0.05a0.182,0.182,0,0,0-.072-0.01v-3.12c0.62,0.03,1.244.05,1.867,0.06h0.1c0.171,0.01.341,0.01,0.511,0.01v3.12c-0.3,0-.605,0-0.9-0.01h-0.138Zm-14.446-8.93v-3.02c0.577,0.15,1.2.3,1.857,0.43v3.05c-0.076-.02-0.155-0.03-0.229-0.05-0.329-.07-0.651-0.15-0.958-0.23Q320.489,1213.89,320.17,1213.8Zm11.257-1.69c0.17,0.01.341,0.01,0.512,0.01v3.12c-0.835-.01-1.664-0.03-2.479-0.07v-3.12q0.933,0.045,1.869.06h0.1Zm2.359,0c0.624-.01,1.248-0.03,1.868-0.06v3.12c-0.105,0-.207.01-0.311,0.02h-0.028c-0.415.02-.838,0.03-1.269,0.04a1.354,1.354,0,0,0-.2.01h-0.669v-3.12c0.17,0,.34,0,0.51-0.01h0.1Zm14.114,0.32-0.017-.01-0.224.18a6.634,6.634,0,0,1-1.475.77v-2.98a8.994,8.994,0,0,0,1.859-.86v2.59A0.517,0.517,0,0,1,347.9,1212.43Zm-7.91,2.35v-3.09c0.638-.07,1.259-0.16,1.858-0.26v3.06C341.262,1214.6,340.643,1214.69,339.99,1214.78Zm3.1-.53v-3.04c0.658-.13,1.28-0.28,1.858-0.43v3.01C344.389,1213.95,343.765,1214.11,343.087,1214.25Zm-4.336-2.42v3.1c-0.6.06-1.217,0.12-1.859,0.16v-3.11Q337.836,1211.92,338.751,1211.83Zm-12.388,3.1v-3.1q0.915,0.09,1.859.15v3.11C327.591,1215.05,326.968,1214.99,326.363,1214.93Zm-1.238-3.24v3.09c-0.123-.01-0.251-0.03-0.372-0.04a1.925,1.925,0,0,0-.233-0.04c-0.358-.05-0.708-0.11-1.051-0.16a1.516,1.516,0,0,0-.2-0.04v-3.07C323.865,1211.53,324.486,1211.62,325.125,1211.69Zm6.659,10.9a2.105,2.105,0,0,0-.25-0.02c-0.4-.03-0.784-0.07-1.162-0.11a1.99,1.99,0,0,1-.243-0.02c-0.016,0-.033-0.01-0.05-0.01v-3.1q0.915,0.09,1.86.15v3.12A0.823,0.823,0,0,0,331.784,1222.59Zm-4.092-.47c-0.246-.04-0.475-0.08-0.71-0.12v-3.07c0.6,0.1,1.22.19,1.859,0.26v3.1c-0.38-.06-0.751-0.11-1.107-0.16A0.066,0.066,0,0,0,327.692,1222.12Zm-1.948-3.41v3.04c-0.684-.15-1.305-0.3-1.858-0.47v-3C324.464,1218.43,325.086,1218.58,325.744,1218.71Zm-3.1-.82v2.97a3.838,3.838,0,0,1-1.807-1.11l-0.041-.07a0.313,0.313,0,0,1-.01-0.06v-2.59A8.984,8.984,0,0,0,322.647,1217.89Zm14.856,1.72q0.936-.015,1.867-0.06v3.12c-0.814.04-1.641,0.06-2.478,0.07v-3.12c0.171,0,.341,0,0.511-0.01h0.1Zm8,2.4c-0.272.05-.547,0.09-0.828,0.14-0.161.02-.327,0.05-0.494,0.07l-0.479.06v-3.09c0.639-.07,1.26-0.16,1.858-0.26V1222C345.546,1222,345.527,1222.01,345.507,1222.01Zm-4.194.53c-0.232.02-.47,0.04-0.7,0.05v-3.11c0.629-.04,1.25-0.09,1.859-0.15v3.1c-0.361.04-.719,0.08-1.09,0.11h-0.065Zm7.078-1.17c-0.309.09-.634,0.17-0.967,0.25-0.154.03-.311,0.07-0.474,0.11l-0.146.03v-3.05c0.659-.13,1.28-0.28,1.858-0.43v3.02C348.573,1221.32,348.484,1221.35,348.391,1221.37Zm3.361-6.08c-0.058.42-1.01,0.99-2.712,1.52h0a41.224,41.224,0,0,1-9.966,1.5l-0.671.03c-0.185,0-.372.01-0.56,0.01-0.513.02-1.033,0.02-1.57,0.02s-1.056,0-1.569-.02c-0.188,0-.375-0.01-0.56-0.01l-0.67-.03a41.217,41.217,0,0,1-9.967-1.5h0c-1.688-.53-2.639-1.09-2.71-1.51a0.2,0.2,0,0,1,.012-0.04l0.131,0.03c0.241,0.06.491,0.12,0.743,0.17a38.936,38.936,0,0,0,4.048.65s0.009,0.01.013,0.01h0c0.989,0.11,2.016.2,3.07,0.26,0.007,0,.015.01,0.023,0.01h0.011c0.759,0.04,1.529.07,2.306,0.09,0.476,0.01.944,0.02,1.4,0.02,0.325,0,.658,0,0.994-0.01a46.859,46.859,0,0,0,11.575-1.45l0.392-.12a2.006,2.006,0,0,0,.237-0.07c0.223-.07.439-0.14,0.646-0.22a0.449,0.449,0,0,1,.107-0.04c0.174-.07.344-0.14,0.5-0.21l0.14-.06c0.171-.08.337-0.16,0.492-0.24,0.068-.04.128-0.08,0.193-0.12a1.754,1.754,0,0,0,.217-0.13,0.628,0.628,0,0,0,.123-0.07C350.951,1214.37,351.682,1215.03,351.752,1215.29Zm-19.195-10.04c10.213,0,15.38,1.62,15.476,2.55-0.075.42-1.026,0.98-2.71,1.51h0a41.207,41.207,0,0,1-9.966,1.5l-0.671.03c-0.184,0-.371.01-0.559,0.01-0.512.02-1.034,0.02-1.57,0.02s-1.056,0-1.569-.02c-0.188,0-.374-0.01-0.56-0.01l-0.672-.03a41.206,41.206,0,0,1-9.965-1.5h0c-1.685-.53-2.636-1.09-2.709-1.51C317.179,1206.87,322.344,1205.25,332.557,1205.25Zm-15.485,6.87v-2.59a8.959,8.959,0,0,0,1.858.86v3C317.725,1212.93,317.074,1212.47,317.072,1212.12Zm3,8.65c0.008,0.01.023,0.02,0.032,0.03a10.576,10.576,0,0,0,4.791,2.05l0.154,0.03c0.16,0.04.323,0.08,0.487,0.11a48.3,48.3,0,0,0,7.016.9h0c0.839,0.05,1.7.08,2.574,0.1,0.387,0,.769.01,1.141,0.01,0.428,0,.867-0.01,1.313-0.02,0.809-.01,1.608-0.05,2.4-0.09h0.008c0.006,0,.011-0.01.016-0.01a47.166,47.166,0,0,0,7.149-.92,10.985,10.985,0,0,1-1.832.72h0a41.881,41.881,0,0,1-10.7,1.53c-0.139.01-.277,0.01-0.417,0.02s-0.308,0-.461.01c-0.39,0-.782.01-1.185,0.01-0.535,0-1.056-.01-1.569-0.02-0.188-.01-0.374-0.01-0.56-0.02-0.228-.01-0.449-0.01-0.672-0.02a41.117,41.117,0,0,1-9.965-1.51h0c-1.7-.53-2.658-1.09-2.711-1.52C317.147,1221.93,317.774,1221.34,320.073,1220.77Zm-3,5.73v-2.59a9.508,9.508,0,0,0,1.858.86v2.98l-0.354-.14-0.007.01C317.6,1227.21,317.074,1226.81,317.072,1226.5Zm1.858,6.87v-2.59a8.921,8.921,0,0,0,1.859.86v3C319.583,1234.18,318.932,1233.72,318.93,1233.37Zm29.113,1.27v-3a8.925,8.925,0,0,0,1.857-.86v2.59C349.9,1233.72,349.247,1234.18,348.043,1234.64Zm1.85-5.59c-0.068.42-1.02,0.98-2.71,1.51h0a41.244,41.244,0,0,1-9.968,1.5l-0.67.03c-0.185,0-.371.01-0.56,0.01-0.513.02-1.033,0.02-1.569,0.02s-1.058,0-1.571-.02c-0.186,0-.371-0.01-0.554-0.01l-0.676-.03a41.216,41.216,0,0,1-9.966-1.5h0c-1.639-.51-2.585-1.06-2.7-1.47,0.185,0.06.377,0.12,0.572,0.19,0.02,0,.039.01,0.06,0.01,0.167,0.06.338,0.11,0.514,0.16a1.538,1.538,0,0,1,.2.05c0.1,0.03.2,0.05,0.3,0.08a44.617,44.617,0,0,0,8.244,1.18h0.006c0.96,0.06,1.941.09,2.931,0.11h0.783c0.341,0,.692,0,1.044-0.01,0.9-.01,1.8-0.05,2.668-0.1h0.013c1.062-.06,2.092-0.16,3.079-0.27h0.01a0.056,0.056,0,0,0,.039-0.01c1.1-.12,2.143-0.28,3.111-0.46l0.59-.12,0.131-.03a16.55,16.55,0,0,0,4.5-1.47,1.977,1.977,0,0,1,.171-0.1c0.07-.04.135-0.09,0.2-0.13s0.129-.07.182-0.11C349.515,1228.5,349.852,1228.89,349.893,1229.05Zm0.007-8.16v-3a8.911,8.911,0,0,0,1.858-.86v2.59C351.758,1219.97,351.105,1220.43,349.9,1220.89Z" transform="translate(-315.844 -1204)"/>
</svg>
