<svg xmlns="http://www.w3.org/2000/svg" width="42.855" height="49.998" viewBox="0 0 150 175">
  <defs>
    <style>
      .cls-1 {
        fill: #d6a294;
        fill-rule: evenodd;
      }
    </style>
  </defs>
  <path class="cls-1" d="M1128.85,1251.29a71.054,71.054,0,0,0-8.15,9.78,31.6,31.6,0,0,0,10.2,4.32,36.039,36.039,0,0,0,42-28.97l0.02-.11a52.521,52.521,0,0,0,.71-5.52A69.438,69.438,0,0,0,1128.85,1251.29Zm59.75-11.77q-1.635-1.65-3.35-3.22c-0.19,1.27-.35,2.14-0.4,2.38a48.112,48.112,0,0,1-11.89,23.85,31.9,31.9,0,0,0,21.8,2.93,34.954,34.954,0,0,0,10.26-4.3A100.339,100.339,0,0,0,1188.6,1239.52Zm-70.04-29.24h-2.13a75.2,75.2,0,0,0-28.43,59.01,75.118,75.118,0,0,0,8.11,34.03v-2.34a82.762,82.762,0,0,1,65.45-80.83A97.945,97.945,0,0,0,1118.56,1210.28ZM1163,1194a74.4,74.4,0,0,0-27.77,5.32,112,112,0,0,1,94.49,104.34,75.1,75.1,0,0,0,8.28-34.37C1238,1227.77,1204.35,1194,1163,1194Zm47.36,78.2a47.356,47.356,0,0,1-12.77,5.14,41.194,41.194,0,0,1-9.58,1.12,46.641,46.641,0,0,1-25.05-7.6,47.85,47.85,0,0,1-34.25,6.54,43.848,43.848,0,0,1-14.06-5.72,69.947,69.947,0,0,0-6.38,29.3v27.73a40.26,40.26,0,0,0,40.14,40.29h29.18a40.267,40.267,0,0,0,40.14-40.29v-18.88A99.154,99.154,0,0,0,1210.36,1272.2Zm-73.71,50a14.245,14.245,0,1,1,14.19-14.25A14.218,14.218,0,0,1,1136.65,1322.2Zm26.35,22.38a10.153,10.153,0,0,1-10.14-10.17h20.27A10.145,10.145,0,0,1,1163,1344.58Zm26.35-22.38a14.245,14.245,0,1,1,14.19-14.25A14.218,14.218,0,0,1,1189.35,1322.2Z" transform="translate(-1088 -1194)"/>
</svg>
