<svg xmlns="http://www.w3.org/2000/svg" width="43.141" height="49.998" viewBox="0 0 151 175">
  <defs>
    <style>
      .cls-1 {
        fill: #d6a294;
        fill-rule: evenodd;
      }
    </style>
  </defs>
  <path id="Forma_1" data-name="Forma 1" class="cls-1" d="M497.349,1273.24a347.563,347.563,0,0,1-7.1,45.9c0,0.02-.008.03-0.008,0.05l-7.806,34.24s0,0,0,.01c-0.963,4.21-3.225,5.17-4.648,5.35H447.229a6.754,6.754,0,0,1-6.671-5.42l-0.1-.41c0-.01,0-0.04,0-0.04l-0.085-.34-6.625-27.64a0.46,0.46,0,0,0-.013-0.05c-4.694-19.58-8.728-47.72-8.728-47.72v-10.58a4.343,4.343,0,0,1,4.352-4.34H493a4.343,4.343,0,0,1,4.352,4.34v6.65h0Zm4.129-23.38H484.217c-5.729,0-6.316-4.17-6.353-5.64v-6.75c0-5.89-4.04-10.67-9.057-10.67h-15.27c-5.014,0-9.057,4.78-9.057,10.67v7.06c-0.126,1.85-1.02,5.33-6.026,5.33H420.872a8.832,8.832,0,0,0-8.877,8.85v9.71s-0.108,8.62,3.617,21.7a0.013,0.013,0,0,0,0,.01l15.09,53.01c0.008,0.05,2.373,11.19,2.373,14.16v7.28a4.417,4.417,0,0,0,4.442,4.42h47.318a4.421,4.421,0,0,0,4.439-4.42v-3.48c0.1-2.74,1.032-8.96,1.791-13.59l3.5-14.59,12.061-42.37v-0.01c2.578-9.05,3.734-23,3.734-23v-8.83a8.837,8.837,0,0,0-8.881-8.85h0ZM480.4,1284.04H463.481a3.623,3.623,0,0,0-3.877,2.94l-3.73,32.02c-0.208,1.76-1.161,0-1.166,0l-6.482-31.15c-0.714-3.42-3.1-3.79-3.944-3.82h-2.973c-5.379,0-5.957,3.46-5.787,5.66l0.3,1.81v0.01l0.437,2.64,6.639,30.49,5.214,21.07c1.046,4.2,3.593,4.94,4.828,5.04h16.344c1.385-.11,3.876-0.81,4.785-4.44l5.745-22.88,5.455-25.46c0.369-1.9.726-3.76,1.047-5.49,1.538-7.69-4.086-8.4-5.913-8.44h0Zm74.06-2.25h-2.381c-3.747.06-4.11-3.6-4.132-4.81v-44.51a53.962,53.962,0,0,1,2.776-15.91,0.41,0.41,0,0,0,.014-0.04l6.318-18.5v-0.01c1.386-4.06-3.139-3.89-3.139-3.89H531.953c-4.217,0-3.287,3.71-2.985,4.64l0,0.03c0.038,0.1.065,0.18,0.065,0.18l6.256,18.58a53.341,53.341,0,0,1,2.5,14.19v45.29c0,3.93-2.2,4.65-3.416,4.76h-2.857c-4.712,0-8.537,5.43-8.537,12.13v62.94c0,6.71,3.825,12.14,8.537,12.14h22.939c4.7,0,8.535-5.43,8.535-12.14v-62.94c0-6.7-3.828-12.13-8.535-12.13h0Z" transform="translate(-412 -1194)"/>
</svg>
