<svg xmlns="http://www.w3.org/2000/svg" width="43.426" height="49.998" viewBox="0 0 152 175">
  <defs>
    <style>
      .cls-1 {
        fill: #d6a294;
        fill-rule: evenodd;
      }
    </style>
  </defs>
  <path class="cls-1" d="M829.2,674.6v76.3l32.8-5.289V679.886Zm44.8,6.334h28v63.636H874V680.931ZM824.791,790.3L817.2,752.836V672.662L794.482,669H794a43.709,43.709,0,0,0-17.735,83.785l9.335,45.473a19.939,19.939,0,0,0,14.778,15.326v5.37a13.189,13.189,0,0,1-26.378,0H762a25.19,25.19,0,0,0,50.379,0v-6.116A19.868,19.868,0,0,0,824.791,790.3ZM800,718.715H780V706.783h20v11.932Z" transform="translate(-750 -669)"/>
</svg>
