<svg xmlns="http://www.w3.org/2000/svg" width="55.712" height="49.998" viewBox="0 0 195 175">
  <defs>
    <style>
      .cls-1 {
        fill: #d6a294;
        fill-rule: evenodd;
      }
    </style>
  </defs>
  <path id="Forma_1" data-name="Forma 1" class="cls-1" d="M854.974,1369H728v-11.92a13.494,13.494,0,0,0,8.437,2.97H846.208Zm-72.026-175A12.431,12.431,0,0,0,776,1216.67a28.851,28.851,0,0,1,6.683-10.53,28.472,28.472,0,0,1,10.458-6.72A12.294,12.294,0,0,0,782.948,1194Zm-3.527,32.53a23.656,23.656,0,1,0,1.341-7.91A24.007,24.007,0,0,0,779.421,1226.53Zm-12.769,32.66c-5.506,12.29-17.511,43.7-20.811,51.61h40.964a63.317,63.317,0,0,1,3.032-6.47c3.857-7.25,15.9-10.84,13.036-20.95-0.021-.08-0.062-0.17-0.084-0.27l10.789,10.3a8.553,8.553,0,0,0,2.8,1.78l29.5,11.34a8.691,8.691,0,0,0,3.032.56,8.552,8.552,0,0,0,3.011-16.53l-26.07-10.03a10.137,10.137,0,0,1-3.28-2.07l-22.978-21.95a9.29,9.29,0,0,0-3.547-1.97c-0.31-.1-0.641-0.21-0.97-0.29-0.351-.1-0.722-0.21-1.093-0.29-5.734-1.54-12.108-2.85-18.007-2.33a12.027,12.027,0,0,0-5.714,1.81C768.365,1254.81,767.582,1257.14,766.652,1259.19Zm-30.216,95.67H848.354l10.725,10.94a10.607,10.607,0,0,0,7.57,3.2h45.708a10.705,10.705,0,1,0-.166-21.41H871.1l-27.927-28.52c-2.166-2.22-3.446-3.14-7.323-3.14-6.683,0-99.418.06-99.418,0.06a8.464,8.464,0,0,0-8.437,8.5v21.88A8.461,8.461,0,0,0,736.436,1354.86Zm171.218-39.16a24.4,24.4,0,1,0-24.4,24.57A24.494,24.494,0,0,0,907.654,1315.7Z" transform="translate(-728 -1194)"/>
</svg>
