<svg xmlns="http://www.w3.org/2000/svg" width="53.426" height="49.998" viewBox="0 0 187 175">
  <defs>
    <style>
      .cls-1 {
        fill: #d6a294;
        fill-rule: evenodd;
      }
    </style>
  </defs>
  <path id="Forma_1" data-name="Forma 1" class="cls-1" d="M1254.73,670.588A4.911,4.911,0,0,0,1251.1,669h-70.35a4.918,4.918,0,0,0-4.91,5.339l0.58,6.769h79.01l0.58-6.769A4.959,4.959,0,0,0,1254.73,670.588Zm-67.65,135.491h57.7l9.85-115.654h-77.42Zm0.54,25.75A12.181,12.181,0,0,0,1199.81,844h32.23a12.175,12.175,0,0,0,12.19-12.17V816.288h-56.61v15.541Zm-19.11-32.009H1106.4l-24.97,11.306c-0.06.025-.12,0.037-0.18,0.062v11.3A21.53,21.53,0,0,0,1102.8,844h48.21a21.53,21.53,0,0,0,21.55-21.51v-18.63A4.042,4.042,0,0,0,1168.51,799.82Zm-18.38-19.794-25.08,11.356h32.43a2.961,2.961,0,0,0,2.64-4.313,12.808,12.808,0,0,0-7.87-6.442Zm4.05-16.772a4.044,4.044,0,0,0-.1-3.093L1153,757.8a9.521,9.521,0,0,0-12.6-4.732l-65.81,29.789a9.5,9.5,0,0,0-4.74,12.582l1.07,2.372a4.048,4.048,0,0,0,3.69,2.365,4.124,4.124,0,0,0,1.68-.358l75.77-34.3A4.039,4.039,0,0,0,1154.18,763.254Z" transform="translate(-1069 -669)"/>
</svg>
