<svg xmlns="http://www.w3.org/2000/svg" width="64.872" height="49.997" viewBox="0 0 157 121">
  <defs>
    <style>
      .cls-1 {
        fill: #d6a294;
        fill-rule: evenodd;
      }
    </style>
  </defs>
  <path class="cls-1" d="M476.561,1744.61c-25.115-2.48-49.468,3.09-65.964,8.81a14.332,14.332,0,1,0,9.509,27.04c24.894-8.79,89.9-21.47,131.463,1.82C551.569,1782.28,534.075,1750.28,476.561,1744.61Zm71.459,70.48a12.535,12.535,0,0,1-15.209,6.31c-0.445-.47-0.947-0.99-1.5-1.55a23.791,23.791,0,0,0,3.7-1.93,23.472,23.472,0,0,0,10.346-14.84l-10.87-2.38a12.5,12.5,0,0,1-13.624,9.74c-0.451-.36-0.911-0.73-1.38-1.09a23.616,23.616,0,0,0,10.421-19.4l-11.129-.08a12.526,12.526,0,0,1-9.944,12.14c-12.353-7.43-24.923-11.32-36.793-11.32-14.547,0-30.144,5.84-45.1,16.88a114.9,114.9,0,0,0-18.273,16.7l-2.992,3.57,2.992,3.57a114.362,114.362,0,0,0,18.273,16.7c14.959,11.05,30.556,16.89,45.1,16.89s30.143-5.84,45.1-16.89a119.952,119.952,0,0,0,16.864-15.1,23.3,23.3,0,0,0,2.763.17A23.669,23.669,0,0,0,558,1820.01Zm-88.966,36.99c-17.675-4.78-32.255-17.88-38.536-24.24,6.276-6.38,20.847-19.5,38.576-24.25A27.485,27.485,0,0,0,459.054,1852.08Zm12.983-17.85a6.39,6.39,0,1,1,6.393-6.39A6.391,6.391,0,0,1,472.037,1834.23Zm12.944,17.87a27.485,27.485,0,0,0,.041-48.49c17.672,4.77,32.25,17.87,38.535,24.24C517.28,1834.23,502.711,1847.35,484.981,1852.1Z" transform="translate(-401 -1744)"/>
</svg>
