<svg xmlns="http://www.w3.org/2000/svg" width="56.569" height="49.998" viewBox="0 0 198 175">
  <defs>
    <style>
      .cls-1 {
        fill: #d6a294;
        fill-rule: evenodd;
      }
    </style>
  </defs>
  <path id="Forma_1" data-name="Forma 1" class="cls-1" d="M825.163,1720.87a5.794,5.794,0,0,0-9.522,1.59L763.3,1836.73a28.385,28.385,0,0,0-7.3-1.05,29.5,29.5,0,1,0,25.686,15.9l47.264-104.34A23.413,23.413,0,0,0,825.163,1720.87ZM756,1882.33a17.5,17.5,0,1,1,17.4-17.49A17.468,17.468,0,0,1,756,1882.33Zm69.61-46.65a28.39,28.39,0,0,0-7.3,1.05l-8.626-18.83-12.509,27.61,2.748,6.07A28.886,28.886,0,1,0,825.612,1835.68Zm0,46.65a17.5,17.5,0,1,1,17.4-17.49A17.469,17.469,0,0,1,825.612,1882.33Zm81.985-163.3H872.019a5.83,5.83,0,0,0,0,11.66H890.2v11.67H872.019a5.83,5.83,0,0,0,0,11.66H890.2v11.67H872.019a5.83,5.83,0,0,0,0,11.66H890.2v11.67H872.019a5.83,5.83,0,0,0,0,11.66H890.2v11.67H872.019a5.83,5.83,0,0,0,0,11.66H890.2v11.67H872.019a5.83,5.83,0,0,0,0,11.66H890.2v11.67H872.019a5.83,5.83,0,0,0,0,11.66H890.2v11.66H872.019a5.835,5.835,0,0,0,0,11.67H907.6a17.47,17.47,0,0,0,17.4-17.5V1736.53A17.47,17.47,0,0,0,907.6,1719.03Zm-141.623,3.43a5.794,5.794,0,0,0-9.522-1.59,23.412,23.412,0,0,0-3.788,26.37l19.317,42.65,12.441-27.16Z" transform="translate(-727 -1719)"/>
</svg>
