<svg xmlns="http://www.w3.org/2000/svg" width="47.144" height="49.984" viewBox="0 0 166 176">
  <defs>
    <style>
      .cls-1 {
        fill: #d6a294;
        fill-rule: evenodd;
      }
    </style>
  </defs>
  <path class="cls-1" d="M457.612,696.246H418.961L409.8,713.629h56.11Zm-19.319,130.37H405.349L405,844h35.788Zm-29.229-99.95-3.416,86.913h30.775l-5.972-41.613-2.136-14.88h5.9a47.685,47.685,0,0,1,6.532-12.736,51.855,51.855,0,0,1,13.276-12.765,58.676,58.676,0,0,1,8.947-4.919h-53.9ZM421.281,668h34.047v15.21H421.281V668ZM539.5,735.626l-4.571-5.678-5.168,5.146c-3.032,3.019-5.38,4.124-8.307,4.124-2.419,0-5.233-.753-9.16-1.8-5.593-1.5-12.552-3.36-21.553-3.36-19.49,0-35.585,9-42.409,23.032h98.382C547.845,750.207,545.426,742.989,539.5,735.626Zm-96.085,34.5L454.014,844h85.561l8.73-60.84h9.6v10.865H571v-23.9H443.414Zm70.84,43.457H479.335V800.543h34.92v13.036h0Z" transform="translate(-405 -668)"/>
</svg>
