<svg xmlns="http://www.w3.org/2000/svg" width="30" height="30" viewBox="0 0 30 30">
  <metadata><?xpacket begin="﻿" id="W5M0MpCehiHzreSzNTczkc9d"?>
<x:xmpmeta xmlns:x="adobe:ns:meta/" x:xmptk="Adobe XMP Core 5.6-c142 79.160924, 2017/07/13-01:06:39        ">
   <rdf:RDF xmlns:rdf="http://www.w3.org/1999/02/22-rdf-syntax-ns#">
      <rdf:Description rdf:about=""/>
   </rdf:RDF>
</x:xmpmeta>
                                                                                                    
                                                                                                    
                                                                                                    
                                                                                                    
                                                                                                    
                                                                                                    
                                                                                                    
                                                                                                    
                                                                                                    
                                                                                                    
                                                                                                    
                                                                                                    
                                                                                                    
                                                                                                    
                                                                                                    
                                                                                                    
                                                                                                    
                                                                                                    
                                                                                                    
                                                                                                    
                           
<?xpacket end="w"?></metadata>
<defs>
    <style>
      .cls-1 {
        fill: #fff;
        fill-rule: evenodd;
      }
    </style>
  </defs>
  <path id="Rectangle_1_copy_5" data-name="Rectangle 1 copy 5" class="cls-1" d="M4323.51,3396.24c6.33-.17,9.68,2.3,10.94,5.99,0.86,3.65-.94,8.15-2.59,11.16-3.46,6.32-9.56,13.32-17.12,14.5-5.91.91-7.64-5.47-7.46-4.77a7.864,7.864,0,0,0,5.5,5.82c2.58,0.61,5.88-.51,8.17-1.65a29.243,29.243,0,0,0,5.76-3.91,39.425,39.425,0,0,1-3.04,3.69c-4.4,4.7-9.35,6.06-13.41,9.5-7.45,6.3-2.24,22.62-2.24,22.62s-4.52-16.75,11.18-23.97c0.12-.06.47-0.19,0.59-0.25-4.06,6.99-.83,18.83,11.33,28.7-10.4-17.88,2.82-32.38,9.81-42.29C4351.55,3406.33,4344.87,3390.35,4323.51,3396.24Zm-9.78,10.98c0.05-.13,2.57.84,5.45,2.93a0.944,0.944,0,0,1-.03-0.09c-2.24-6.88-11.31-5.27-13.82-4.5,4.94,1.09,9.83,10.13,14.12,6.1C4317.2,3409.88,4314.76,3407.91,4313.73,3407.22Zm8.86-1.3a11.03,11.03,0,0,0-.58,5.14c-0.01-.02-0.03-0.04-0.04-0.06-3.71-4.84,2.75-10.51,4.02-11.29-1.15,3.62.98,13.28-3.06,12.25A17.356,17.356,0,0,1,4322.59,3405.92Zm-6.43,11.45a13.039,13.039,0,0,1,4.88-3.79,0.34,0.34,0,0,0-.1-0.01c-7.25-.71-9,9.34-9.01,11.1,2.98-3.42,14.61-8.34,10.6-10.74A20.373,20.373,0,0,0,4316.16,3417.37Zm7.02-21.13c6.33-.17,9.67,2.3,10.93,5.99,0.86,3.65-.93,8.15-2.58,11.16-3.47,6.32-9.56,13.32-17.12,14.5-5.91.91-7.65-5.47-7.46-4.77a7.852,7.852,0,0,0,5.49,5.82c2.58,0.61,5.89-.51,8.18-1.65a29.54,29.54,0,0,0,5.76-3.91,38.023,38.023,0,0,1-3.05,3.69c-4.39,4.7-9.35,6.06-13.41,9.5-7.44,6.3-2.24,22.62-2.24,22.62s-4.52-16.75,11.19-23.97c0.12-.06.47-0.19,0.58-0.25-4.05,6.99-.83,18.83,11.34,28.7-10.4-17.88,2.82-32.38,9.8-42.29C4351.21,3406.33,4344.54,3390.35,4323.18,3396.24Zm-9.78,10.98c0.05-.13,2.56.84,5.44,2.93-0.01-.03-0.01-0.05-0.02-0.09-2.25-6.88-11.32-5.27-13.82-4.5,4.94,1.09,9.83,10.13,14.11,6.1C4316.86,3409.88,4314.42,3407.91,4313.4,3407.22Zm8.86-1.3a10.766,10.766,0,0,0-.58,5.14c-0.02-.02-0.03-0.04-0.05-0.06-3.7-4.84,2.76-10.51,4.03-11.29-1.16,3.62.97,13.28-3.07,12.25A17.062,17.062,0,0,1,4322.26,3405.92Zm-6.44,11.45a13.127,13.127,0,0,1,4.88-3.79,0.277,0.277,0,0,0-.09-0.01c-7.25-.71-9.01,9.34-9.01,11.1,2.98-3.42,14.61-8.34,10.6-10.74A20.566,20.566,0,0,0,4315.82,3417.37Zm47.85,8.56c3.44,0.27,5.62-.3,9.36-2.37l-1.69-.08a16.1,16.1,0,0,1-4.83-.31c-7.42-1.36-11.09-10.13-14.5-15.96a35.7,35.7,0,0,0-6.52-8.57,21.753,21.753,0,0,0-2.45-1.61c4.4,4.74,5.79,7.86,5.86,16.17,0.08,9.09,8.74,9.82,4.15,12.94-3.15,2.14-1.94,2.27-.88,3.94,0.71,1.15-.05,1.57-1.3,2.37,1.33,2.12,1.3,1.77-.51,3.02-1.92,1.31,2.36,5.12-2.25,6.25-2.91.7-5.71-1.06-9.29,0.78-4.56,13.12,14.72,11.12,26.45,21.34-1.81-5.85-14.19-9.6-8.52-18.85,0.84,7.69,7.89,15.32,16.56,14.86a34.319,34.319,0,0,1-5.19-3.98c-3.13-2.78-5.96-4.43-6.48-7.59-2.49-14.67,2.68,8.52,17.36,4.13-4.35-1.64-6.82-2.52-9.19-8.05-3.9-9.12-4.42-9.8-7.89-12.83,0.84,0.73,5.26,1.01,9.48,3.95,4.87,3.43,4.44,5.69,6.27,10.57,0.06-17.74-11.42-14.28-14-20.12h0Zm-0.84.17c3.44,0.27,5.63-.3,9.37-2.37l-1.69-.08a16.08,16.08,0,0,1-4.83-.31c-7.42-1.37-11.09-10.13-14.5-15.97a35.928,35.928,0,0,0-6.53-8.56,20.38,20.38,0,0,0-2.45-1.61c4.4,4.73,5.79,7.86,5.86,16.16,0.08,9.09,8.74,9.83,4.15,12.94-3.15,2.14-1.94,2.28-.88,3.94,0.71,1.16-.04,1.57-1.3,2.37,1.33,2.12,1.3,1.78-.51,3.03-1.92,1.31,2.37,5.12-2.25,6.25-2.91.7-5.71-1.07-9.28,0.78-4.56,13.12,14.72,11.11,26.45,21.33-1.81-5.85-14.19-9.59-8.53-18.84,0.85,7.69,7.9,15.31,16.56,14.86a34.836,34.836,0,0,1-5.19-3.98c-3.13-2.79-5.96-4.43-6.48-7.59-2.49-14.67,2.68,8.52,17.36,4.13-4.34-1.64-6.81-2.53-9.18-8.06-3.91-9.11-4.43-9.79-7.9-12.83,0.84,0.74,5.27,1.01,9.48,3.95,4.87,3.44,4.44,5.7,6.27,10.58,0.07-17.74-11.41-14.29-14-20.12h0Zm0.17-.33c3.44,0.27,5.62-.31,9.36-2.37l-1.69-.08a16.121,16.121,0,0,1-4.83-.31c-7.42-1.37-11.09-10.13-14.5-15.97a35.641,35.641,0,0,0-6.52-8.56,20.38,20.38,0,0,0-2.45-1.61c4.4,4.73,5.79,7.86,5.86,16.16,0.08,9.09,8.74,9.82,4.15,12.94-3.15,2.14-1.94,2.28-.88,3.94,0.71,1.15-.05,1.57-1.3,2.37,1.33,2.12,1.29,1.78-.51,3.03-1.92,1.3,2.37,5.12-2.25,6.25-2.91.7-5.71-1.07-9.29,0.78-4.56,13.12,14.72,11.11,26.45,21.33-1.81-5.85-14.19-9.6-8.52-18.84,0.84,7.69,7.89,15.31,16.56,14.86a34.836,34.836,0,0,1-5.19-3.98c-3.13-2.79-5.96-4.43-6.48-7.59-2.49-14.67,2.68,8.52,17.36,4.13-4.34-1.65-6.82-2.53-9.19-8.06-3.9-9.11-4.42-9.79-7.89-12.83,0.84,0.74,5.26,1.01,9.48,3.95,4.87,3.44,4.44,5.7,6.27,10.58,0.06-17.74-11.42-14.29-14-20.12h0Z" transform="translate(-4327 -3414.5)"/>
</svg>
